<svg width="32" height="32" viewBox="0 0 32 32" fill="none" xmlns="http://www.w3.org/2000/svg"><g filter="url(#filter0_d_10_555)"><path d="M27.2956 15.9961C26.7148 15.1072 25.9248 14.3744 24.9948 13.8621C24.0648 13.3498 23.0232 13.0736 21.9616 13.0577C21.9459 12.5981 21.8877 12.1409 21.7878 11.692C21.7061 11.348 21.4911 11.0506 21.1902 10.8652C20.8892 10.6797 20.5269 10.6214 20.1829 10.7031C19.839 10.7847 19.5416 10.9997 19.3561 11.3007C19.1706 11.6016 19.1123 11.9639 19.194 12.3079C19.2536 12.5715 19.2905 12.8397 19.3043 13.1097C17.8169 13.2938 16.3582 13.6619 14.9616 14.2055C14.9916 12.6004 15.064 10.9958 15.2239 9.39579L15.2749 8.88617C16.8372 8.67329 18.387 8.37769 19.9179 8.0006L20.0781 7.96088C20.2488 7.91958 20.4098 7.84494 20.5516 7.74125C20.6934 7.63755 20.8134 7.50685 20.9045 7.35665C20.9957 7.20645 21.0562 7.03971 21.0827 6.86603C21.1093 6.69234 21.1012 6.51513 21.059 6.34458C21.0167 6.17403 20.9412 6.0135 20.8368 5.87223C20.7323 5.73095 20.601 5.61171 20.4503 5.52136C20.2996 5.43101 20.1326 5.37134 19.9587 5.34576C19.7849 5.32019 19.6078 5.32922 19.4374 5.37235L19.2747 5.41271C18.0458 5.72 16.8005 5.95201 15.5494 6.14684L15.7512 4.13276C15.7687 3.95852 15.7516 3.78255 15.7011 3.61489C15.6505 3.44724 15.5674 3.29119 15.4565 3.15565C15.3457 3.02011 15.2092 2.90774 15.0549 2.82494C14.9006 2.74215 14.7315 2.69056 14.5572 2.67312C14.383 2.65568 14.207 2.67273 14.0394 2.72329C13.8717 2.77386 13.7157 2.85695 13.5801 2.96782C13.3064 3.19175 13.1328 3.51524 13.0976 3.86713L12.836 6.47949C11.5908 6.59115 10.3422 6.66667 9.09114 6.66667C8.73752 6.66667 8.39838 6.80714 8.14833 7.05719C7.89828 7.30724 7.7578 7.64638 7.7578 8C7.7578 8.35362 7.89828 8.69276 8.14833 8.94281C8.39838 9.19286 8.73752 9.33333 9.09114 9.33333C10.2519 9.33333 11.4105 9.27148 12.5669 9.18107C12.3714 11.2632 12.2809 13.3539 12.296 15.4451C12.117 15.5428 11.9365 15.6346 11.7591 15.7376C10.8522 16.2573 9.98364 16.8412 9.16018 17.485L9.13023 17.5091C7.79276 18.5409 6.60442 19.7527 5.59898 21.11C5.13322 21.7553 4.87023 22.5247 4.84356 23.3201C4.81689 24.1154 5.02774 24.9007 5.44922 25.5758C5.8707 26.2508 6.4837 26.785 7.21004 27.1102C7.93637 27.4354 8.74312 27.5369 9.52736 27.4017C10.851 27.1503 12.1275 26.6945 13.311 26.0505C13.4756 26.3093 13.7247 26.503 14.016 26.5989C14.3072 26.6948 14.6227 26.6869 14.9088 26.5766C15.1949 26.4662 15.434 26.2602 15.5854 25.9936C15.7368 25.727 15.7913 25.4162 15.7396 25.1139C15.7073 24.9203 15.6925 24.7247 15.6621 24.5308C16.278 24.0548 16.8632 23.5402 17.4141 22.9902C18.5035 21.9053 19.4456 20.6819 20.2163 19.3516C20.2469 19.2989 20.2725 19.2461 20.3023 19.1934C20.4596 18.9126 20.6082 18.6307 20.7447 18.3468C20.8164 18.1987 20.8811 18.0511 20.9467 17.903C21.0266 17.7214 21.103 17.5401 21.174 17.3579C21.2493 17.1664 21.3204 16.9758 21.3853 16.785C21.4284 16.6572 21.466 16.53 21.5046 16.4024C21.573 16.1773 21.6402 15.953 21.6939 15.7301L21.7006 15.7064C22.3383 15.6972 22.9691 15.8399 23.5408 16.1227C24.1125 16.4054 24.6087 16.8202 24.9883 17.3327C26.3464 19.6888 23.7045 23.9687 19.099 26.8724C18.9504 26.9655 18.8215 27.087 18.7199 27.23C18.6183 27.373 18.5459 27.5346 18.5069 27.7056C18.4679 27.8766 18.463 28.0536 18.4925 28.2265C18.522 28.3994 18.5854 28.5648 18.6789 28.7131C18.7724 28.8615 18.8944 28.9899 19.0376 29.0911C19.1809 29.1923 19.3427 29.2642 19.5139 29.3027C19.685 29.3412 19.862 29.3455 20.0348 29.3155C20.2076 29.2855 20.3728 29.2216 20.5209 29.1276C26.5195 25.3464 29.4323 19.7031 27.2956 15.9961ZM9.06119 24.7767C8.80046 24.8189 8.53307 24.7831 8.29264 24.6737C8.05221 24.5644 7.84946 24.3864 7.7099 24.1622C7.57033 23.9379 7.50017 23.6774 7.50823 23.4134C7.51629 23.1494 7.60222 22.8937 7.7552 22.6784C8.62633 21.5106 9.65422 20.4685 10.8099 19.5814L10.845 19.5527C11.3169 19.1835 11.8344 18.8341 12.3704 18.4954C12.4518 20.0892 12.6008 21.6779 12.8049 23.2619C11.6621 23.9954 10.3925 24.5091 9.06119 24.7767ZM18.8342 15.9994C18.7117 16.3537 18.571 16.7014 18.4127 17.0412C18.3385 17.1997 18.2553 17.3582 18.1724 17.5171C18.0443 17.7647 17.9062 18.011 17.7583 18.2562C17.6454 18.4422 17.5291 18.628 17.4048 18.8128C16.855 19.6356 16.2266 20.4032 15.5286 21.1048C15.4355 21.1979 15.3374 21.2825 15.2425 21.3728C15.0975 19.9528 15.0036 18.5293 14.9608 17.1024C16.2112 16.528 17.5279 16.1104 18.8808 15.8593C18.8653 15.906 18.8506 15.9525 18.8342 15.9994Z" fill="#FFCD69"/></g><defs><filter id="filter0_d_10_555" x="0" y="0" width="33" height="33" filterUnits="userSpaceOnUse" color-interpolation-filters="sRGB"><feFlood flood-opacity="0" result="BackgroundImageFix"/><feColorMatrix in="SourceAlpha" type="matrix" values="0 0 0 0 0 0 0 0 0 0 0 0 0 0 0 0 0 0 127 0" result="hardAlpha"/><feOffset dx="1" dy="1"/><feComposite in2="hardAlpha" operator="out"/><feColorMatrix type="matrix" values="0 0 0 0 1 0 0 0 0 0.756863 0 0 0 0 0.266667 0 0 0 1 0"/><feBlend mode="normal" in2="BackgroundImageFix" result="effect1_dropShadow_10_555"/><feBlend mode="normal" in="SourceGraphic" in2="effect1_dropShadow_10_555" result="shape"/></filter></defs></svg>
