<svg xmlns="http://www.w3.org/2000/svg" viewBox="0 0 64 64"><path fill="#ffcb8e" d="M52.38,14.0547V2.95a1,1,0,0,0-1-1H42.07a1,1,0,0,0-1,1V5.4521A45.5129,45.5129,0,0,0,30.1587,1.9678a1.064,1.064,0,0,0-.3775,0C5.166,6.7061,2.0112,24.95,1.9824,25.1338A1,1,0,0,0,2.97,26.29H7.56V51.36a1,1,0,0,0,1,1H37.52a1,1,0,0,0,.707-1.7071l-1.76-1.7607A7.0928,7.0928,0,0,1,46.5029,38.8672a1,1,0,0,0,.707.293h.002a1.0031,1.0031,0,0,0,.708-.2959,7.0331,7.0331,0,0,1,3.6528-1.9532A1.0012,1.0012,0,0,0,52.38,35.93V26.29h4.59a1.0006,1.0006,0,0,0,.9873-1.1582A25.2587,25.2587,0,0,0,52.38,14.0547Z"/><path fill="#f5efef" d="M21.6954 33.5045h7.38v18.75h-7.38a1.0029 1.0029 0 0 1-1-1v-16.75A1.003 1.003 0 0 1 21.6954 33.5045zM39.35 34.61v1.81a.9873.9873 0 0 1-.62.92 7.0885 7.0885 0 0 0-2.26 11.55l1.76 1.76a1.0023 1.0023 0 0 1 .21 1.09.9873.9873 0 0 1-.92.62H30.97V33.61h7.38A1.0029 1.0029 0 0 1 39.35 34.61zM30.0756 14.8789a9.39 9.39 0 0 0-9.3794 9.38v2.793a1 1 0 0 0 1 1H38.4545a1 1 0 0 0 1-1v-2.793A9.39 9.39 0 0 0 30.0756 14.8789z"/><path fill="#e97171" d="M43.8169,56.2432l-5.59-5.59a1,1,0,0,0-.707-.2929H5.76a1,1,0,0,0-1,1v5.59a1,1,0,0,0,1,1H43.11a1,1,0,0,0,.7071-1.707Z"/><path d="M52.38,14.0547V2.95a1,1,0,0,0-1-1H42.07a1,1,0,0,0-1,1V5.4521A45.5129,45.5129,0,0,0,30.1587,1.9678c-.0276-.005-.0555.0027-.0833,0V57.95H43.11a1,1,0,0,0,.7071-1.707l-5.59-5.59-1.76-1.7607A7.0928,7.0928,0,0,1,46.5029,38.8672a1,1,0,0,0,.707.293h.002a1.0031,1.0031,0,0,0,.708-.2959,7.0331,7.0331,0,0,1,3.6528-1.9532A1.0012,1.0012,0,0,0,52.38,35.93V26.29h4.59a1.0006,1.0006,0,0,0,.9873-1.1582A25.2587,25.2587,0,0,0,52.38,14.0547Z" opacity=".1"/><path fill="#ff847c" d="M59.3672,37.4531a9.0735,9.0735,0,0,0-12.1592-.64,9.0379,9.0379,0,0,0-9.2407-1.3174,9.089,9.089,0,0,0-2.9146,14.8105l11.45,11.45a1,1,0,0,0,1.4141,0l11.45-11.45a9.0875,9.0875,0,0,0,0-12.8535Z"/></svg>