<svg xmlns="http://www.w3.org/2000/svg" viewBox="0 0 32 32"><rect width="12" height="14" x="10" y="13" fill="#d6b5b0" rx="1" ry="1"/><path fill="#c4a19d" d="M21,13H19a1,1,0,0,1,1,1V26a1,1,0,0,1-1,1h2a1,1,0,0,0,1-1V14A1,1,0,0,0,21,13Z"/><path fill="#c9c1f5" d="M22.79,9h-14a1,1,0,0,0-1,1v2a3,3,0,0,0,3,3h10a3,3,0,0,0,3-3V10A1,1,0,0,0,22.79,9Z"/><path fill="#b0aae8" d="M23,9a.94.94,0,0,1,.06.29v2a3,3,0,0,1-3,3H10a3,3,0,0,1-1.57-.45A3,3,0,0,0,10.79,15h10a3,3,0,0,0,3-3V10A1,1,0,0,0,23,9Z"/><path fill="#c9c1f5" d="M27,29.76l-.62-2.49A3,3,0,0,0,23.44,25H8.56a3,3,0,0,0-2.91,2.27L5,29.76a1,1,0,0,0,.18.86A1,1,0,0,0,6,31H26a1,1,0,0,0,.79-.38A1,1,0,0,0,27,29.76Z"/><path fill="#b0aae8" d="M27,29.76l-.62-2.49A3,3,0,0,0,23.44,25H8.56A3,3,0,0,0,6,26.44,3.08,3.08,0,0,1,7.56,26H22.44a3,3,0,0,1,2.91,2.27L26,30.76A1,1,0,0,1,26,31h0a1,1,0,0,0,.79-.38A1,1,0,0,0,27,29.76Z"/><path fill="#ffc661" d="M26,1H22a1,1,0,0,0-1,1V5H19V2a1,1,0,0,0-1-1H14a1,1,0,0,0-1,1V5H11V2a1,1,0,0,0-1-1H6A1,1,0,0,0,5,2V8a3,3,0,0,0,3,3H24a3,3,0,0,0,3-3V2A1,1,0,0,0,26,1Z"/><path fill="#f7b54b" d="M26,1h-.08V7a3,3,0,0,1-3,3h-16a3,3,0,0,1-1.44-.38A3,3,0,0,0,8,11H24a3,3,0,0,0,3-3V2A1,1,0,0,0,26,1Z"/></svg>